<?xml version="1.0" encoding="utf-8"?>
<!-- Generator: Adobe Illustrator 26.5.2, SVG Export Plug-In . SVG Version: 6.00 Build 0)  -->
<svg version="1.1" id="a" xmlns="http://www.w3.org/2000/svg" xmlns:xlink="http://www.w3.org/1999/xlink" x="0px" y="0px"
	 viewBox="0 0 335.2 64.2" style="enable-background:new 0 0 335.2 64.2;" xml:space="preserve">
<style type="text/css">
	.st0{fill:#FFFFFF;}
</style>
<g>
	<g id="b">
		<polygon class="st0" points="258.5,0.7 250.9,0.7 241.7,10.9 241.7,0.7 235.3,0.7 235.3,25.9 241.7,25.9 241.7,16.3 250.4,25.9 
			258.5,25.9 246.8,13.5 		"/>
		<path class="st0" d="M224.9,11.1l-5.9-0.7c-3.4-0.4-4.3-1.2-4.3-2.4c0-1.3,1.8-2.5,5.2-2.5c3.3,0,5,1.2,5.4,3.1h6.3
			c-0.3-5.3-4.8-8.6-11.3-8.6c-7.7,0-11.7,3.1-11.7,8.5c0,4.4,2.6,6.5,7.9,7.1l6,0.6c2.3,0.3,3.3,1.1,3.3,2.3c0,1.3-1.5,2.5-5.2,2.5
			c-4.2,0-5.9-1.1-6.2-3.2h-6.2c0.3,5.8,4.1,8.8,12.2,8.8c7.4,0,11.5-3.2,11.5-8.1C232,14.1,229.6,11.6,224.9,11.1L224.9,11.1z"/>
		<polygon class="st0" points="185.2,25.9 205.5,25.9 205.5,20.4 191.6,20.4 191.6,15.9 202.8,15.9 202.8,10.4 191.6,10.4 
			191.6,6.1 205.5,6.1 205.5,0.7 185.2,0.7 		"/>
		<path class="st0" d="M170.1,0.7h-11.8v25.2h11.8c9,0,11.5-3.4,11.5-12.8C181.6,4.3,179.2,0.7,170.1,0.7L170.1,0.7z M169.8,20.4
			h-5.1V6.1h5.1c4,0,5.2,1.1,5.2,7C175.1,18.5,173.7,20.4,169.8,20.4z"/>
		<path class="st0" d="M140.9,0c-9.2,0-13.9,5.6-13.9,13.2c0,7.6,4.8,13.3,13.9,13.3c9.2,0,14-5.7,14-13.3
			C154.8,5.6,150.1,0,140.9,0z M140.9,20.9c-4.8,0-7.4-2.9-7.4-7.6c0-4.6,2.6-7.6,7.4-7.6c4.8,0,7.4,2.9,7.4,7.6
			C148.2,18,145.6,20.9,140.9,20.9z"/>
		<polygon class="st0" points="103.2,6.1 111.4,6.1 111.4,25.9 117.8,25.9 117.8,6.1 125.9,6.1 125.9,0.7 103.2,0.7 		"/>
		<path class="st0" d="M93.9,16.3c0,3.3-2,4.6-5.4,4.6c-3.3,0-5.5-1.4-5.5-4.6V0.7h-6.4V17c0,7.3,6.5,9.5,11.9,9.5
			c5.4,0,11.9-2.3,11.9-9.5V0.7h-6.4L93.9,16.3L93.9,16.3z"/>
		<path class="st0" d="M57.7,0.7L48,25.9h6.6l1.7-4.7h10.8l1.7,4.7h6.9L65.9,0.7H57.7L57.7,0.7z M58.3,15.8l3.5-9.9l3.5,9.9
			C65.3,15.8,58.3,15.8,58.3,15.8z"/>
	</g>
	<g id="c">
		<path id="d" class="st0" d="M0.2,25.9l22.6-14h11.7c0.4,0,0.7,0.3,0.7,0.7c0,0.3-0.1,0.5-0.3,0.6l-11.1,6.6c-0.7,0.4-1,1.3-1,1.9
			l0,4.2h14.1V1.6c0-0.5-0.4-0.9-0.9-0.9H22.5L0,14.7v11.2H0.2z"/>
	</g>
</g>
<g>
	<path class="st0" d="M65.3,45.7v2.1c0,4.6-3.8,7.3-9.6,7.3h-3.2v8.6H48V38.5h8.3C61.8,38.5,65.3,41.1,65.3,45.7z M60.8,45.9
		c0-2.7-1.8-4-4.6-4h-3.6v9.6h3c3.2,0,5.2-1.2,5.2-4.1L60.8,45.9L60.8,45.9z"/>
	<path class="st0" d="M73,59.2c0,1,0.3,1.5,1.3,1.5c0.2,0,0.5,0,0.8-0.1l0.5,3.1c-0.7,0.3-1.5,0.5-2.6,0.5c-2.7,0-4.4-1.4-4.4-4.3
		V37.1H73L73,59.2L73,59.2z"/>
	<path class="st0" d="M93.8,50.8v12.9h-3.5l-0.4-1.8c-1.6,1.6-3.6,2.3-5.7,2.3c-3.4,0-6.4-2.1-6.4-5.4v-1.3c0-3.3,3-5.5,8-5.5h3.5
		v-1.3c0-2.3-1.2-3.2-3.4-3.2c-2.1,0-3.8,0.5-5.6,1.4L79,46.1c1.9-1.2,4.5-2,7.3-2C91.4,44,93.8,46.7,93.8,50.8L93.8,50.8z M89.4,59
		v-4.2h-3.1c-2.6,0-4,1-4,2.9v0.7c0,1.5,0.9,2.5,2.8,2.5C86.7,60.8,88.2,60.3,89.4,59L89.4,59z"/>
	<path class="st0" d="M108.5,63.7c-0.9,0.3-2.2,0.5-3.3,0.5c-3.7,0-5.8-1.6-5.8-5.2V47.9h-2.9v-3.3h3l0.4-4.7h4v4.7h4.1v3.3h-4.1
		v10.8c0,1.4,0.8,2.1,2.3,2.1c0.7,0,1.3-0.1,1.9-0.2C108,60.6,108.5,63.7,108.5,63.7z"/>
	<path class="st0" d="M117.9,42.3v2.2h4.6v3.3h-4.6v15.8h-4.5V47.9h-2.6v-3.3h2.6v-1.8c0-4.1,2.3-6.1,6.4-6.1c1.4,0,2.7,0.2,3.5,0.5
		l-0.5,3.2c-0.8-0.2-1.6-0.3-2.4-0.3C118.6,39.9,117.9,40.6,117.9,42.3L117.9,42.3z"/>
	<path class="st0" d="M142.1,53.1v1.9c0,5.4-3.2,9.1-9.1,9.1c-5.9,0-9-3.7-9-9.1v-1.9c0-5.3,3.1-9.1,9-9.1
		C139,44,142.1,47.9,142.1,53.1z M128.6,53v2c0,3.8,1.5,5.8,4.5,5.8c3,0,4.6-2,4.6-5.8v-2c0-3.7-1.6-5.6-4.6-5.6
		C130.1,47.4,128.6,49.4,128.6,53z"/>
	<path class="st0" d="M157.3,44.5l-0.8,4.1c-0.4-0.1-0.8-0.1-1.2-0.1c-2.2,0-4,0.9-5,3.8v11.4h-4.5V44.5h3.2l0.7,3
		c1.1-2.5,3.2-3.5,5.2-3.5C156,44.1,156.7,44.3,157.3,44.5L157.3,44.5z"/>
	<path class="st0" d="M185.8,50.4v13.2h-4.4V50.8c0-2.4-1.2-3.3-2.6-3.3c-1.4,0-2.6,0.9-3.6,2.4v13.9h-4.5V50.8
		c0-2.4-1.2-3.3-2.6-3.3s-2.6,0.9-3.7,2.4v13.9h-4.4V44.5h3.8l0.3,2c1.3-1.6,3-2.5,5.2-2.5c2.1,0,4,1,5.1,2.9
		c1.5-1.8,3.3-2.9,5.6-2.9C183.1,44,185.8,46.3,185.8,50.4L185.8,50.4z"/>
	<path class="st0" d="M198.2,60.9l2.3-2.7c2.1,1.4,3.5,2.4,6.9,2.4c3.7,0,5.3-1.8,5.3-3.5v-0.5c0-1.8-0.9-2.7-3.9-3.7l-3.7-1.2
		c-4.2-1.4-5.9-3.6-5.9-6.4v-0.8c0-3.4,3.2-6.4,9-6.4c3.8,0,6.6,1.2,8.9,3.3l-2.2,2.5c-2.3-1.7-3.9-2.3-6.4-2.3
		c-3.3,0-4.6,1.5-4.6,3V45c0,1.3,1.2,2.3,4,3.2l3.3,1.1c3.5,1.1,6.1,2.9,6.1,6.8v1c0,4.2-4,7.1-9.6,7.1
		C203,64.2,200.2,62.7,198.2,60.9L198.2,60.9z"/>
	<path class="st0" d="M236.8,55.5h-12.3c0.1,3.7,1.8,5.3,5.1,5.3c2.1,0,3.6-0.8,5.1-1.6l1.6,2.7c-1.6,1.2-4.2,2.3-7,2.3
		c-5.8,0-9.1-3.9-9.1-9v-2c0-5.2,3.2-9.1,8.6-9.1c5.2,0,8.3,3.2,8.3,9.3C237,54.2,236.9,54.9,236.8,55.5L236.8,55.5z M233,52.4
		c0-3.3-1.5-5.1-4.2-5.1c-2.7,0-4.2,1.8-4.2,5.3h8.5L233,52.4L233,52.4z"/>
	<path class="st0" d="M252,44.5l-0.8,4.1c-0.4-0.1-0.8-0.1-1.2-0.1c-2.2,0-4,0.9-5,3.8v11.4h-4.5V44.5h3.2l0.7,3
		c1.1-2.5,3.2-3.5,5.2-3.5C250.8,44.1,251.5,44.3,252,44.5L252,44.5z"/>
	<path class="st0" d="M265.3,63.7h-5.5l-6.2-19.1h4.6l4.4,15.6l4.4-15.6h4.5L265.3,63.7L265.3,63.7z"/>
	<path class="st0" d="M280.7,44.5v19.1h-4.5V47.9h-2.9v-3.3H280.7L280.7,44.5z M275.5,38.9c0-1.5,1.2-2.7,2.7-2.7
		c1.5,0,2.7,1.2,2.7,2.7c0,1.5-1.2,2.7-2.7,2.7C276.8,41.6,275.5,40.4,275.5,38.9z"/>
	<path class="st0" d="M284.2,54.9v-1.6c0-5.5,3.1-9.3,8.8-9.3c2.6,0,4.6,0.8,6.3,2.5l-2.1,2.4c-1.2-1-2.3-1.5-4-1.5
		c-2.8,0-4.5,1.9-4.5,5.8V55c0,3.9,1.6,5.8,4.5,5.8c1.8,0,3-0.7,4.2-1.5l1.8,2.6c-1.6,1.3-4,2.3-6.3,2.3
		C287.4,64.2,284.2,60.5,284.2,54.9L284.2,54.9z"/>
	<path class="st0" d="M317.6,55.5h-12.3c0.1,3.7,1.8,5.3,5.1,5.3c2.1,0,3.6-0.8,5.1-1.6l1.6,2.7c-1.6,1.2-4.2,2.3-7,2.3
		c-5.8,0-9.1-3.9-9.1-9v-2c0-5.2,3.2-9.1,8.6-9.1c5.2,0,8.3,3.2,8.3,9.3C317.7,54.2,317.6,54.9,317.6,55.5L317.6,55.5z M313.7,52.4
		c0-3.3-1.5-5.1-4.2-5.1c-2.7,0-4.2,1.8-4.2,5.3h8.5V52.4z"/>
	<path class="st0" d="M319.6,61.5l2.1-2.6c1.6,1.2,3.2,1.9,5.4,1.9c2.3,0,3.6-0.6,3.6-2.1v-0.3c0-1.3-0.7-1.8-3.2-2.7l-2.4-0.8
		c-3-1.1-4.6-2.5-4.6-4.9v-0.8c0-3.1,3-5.2,7.3-5.2c2.7,0,5.4,0.9,7.2,2.4l-2.1,2.4c-1.9-1.2-3.3-1.5-5-1.5c-2,0-3,0.8-3,1.8v0.3
		c0,1,0.6,1.7,3.1,2.5l2.4,0.8c2.7,1,4.7,2.2,4.7,5.1v0.8c0,3.6-3.5,5.4-7.7,5.4C324.3,64.2,321.6,63.2,319.6,61.5L319.6,61.5z"/>
</g>
</svg>
